Coordinates
version=1
nRows=8
nColumns=40
inDegrees=yes

Units are S.I. units (second, meters, Newtons, ...)
Angles are in degrees.

endheader
time	pelvis_tilt	pelvis_list	pelvis_rotation	pelvis_tx	pelvis_ty	pelvis_tz	hip_flexion_r	hip_adduction_r	hip_rotation_r	knee_angle_r	knee_angle_r_beta	ankle_angle_r	subtalar_angle_r	mtp_angle_r	hip_flexion_l	hip_adduction_l	hip_rotation_l	knee_angle_l	knee_angle_l_beta	ankle_angle_l	subtalar_angle_l	mtp_angle_l	lumbar_extension	lumbar_bending	lumbar_rotation	arm_flex_r	arm_add_r	arm_rot_r	elbow_flex_r	pro_sup_r	wrist_flex_r	wrist_dev_r	arm_flex_l	arm_add_l	arm_rot_l	elbow_flex_l	pro_sup_l	wrist_flex_l	wrist_dev_l
      0.51000000	     -2.46011112	     -1.16651922	      7.40421027	     -0.60805011	      0.87881793	     -1.44458118	     27.67788352	     -2.69695625	    -17.53524242	    -24.61974003	     -0.42969552	     -0.14397252	     -6.65645987	      8.78240841	     -3.90597799	      6.31502520	      6.68108633	    -33.49967179	     -0.58467957	      7.61694578	      1.32857843	     -4.26938826	     -3.03571180	     -0.64339850	     -9.99852080	     -7.36249541	     -6.69600598	    -15.89810565	     20.96023733	     89.95437384	      0.00000000	      0.00000000	      2.25996243	     15.59248506	     36.38247378	     54.57241779	     89.95437384	      0.00000000	      0.00000000
      0.52000000	     -2.46814009	     -1.53771767	      7.29048063	     -0.59703737	      0.87896053	     -1.44256507	     27.47330661	     -2.23727940	    -17.78054871	    -25.38291252	     -0.44301540	     -0.25501508	     -6.56772232	      8.41539319	     -3.13491268	      7.00973088	      6.32925240	    -35.80110441	     -0.62484715	      5.46120903	      2.92697223	     -3.90249343	     -2.79917948	     -0.15355879	     -9.79621912	     -7.07519431	     -6.75271925	    -15.92875769	     20.32418660	     89.95437384	      0.00000000	      0.00000000	      1.76179726	     15.28238239	     36.51242078	     54.46593709	     89.95437384	      0.00000000	      0.00000000
      0.53000000	     -2.29397322	     -1.51540931	      6.91126494	     -0.58590546	      0.87957610	     -1.44090035	     27.02990753	     -2.04166931	    -17.41000185	    -26.24735235	     -0.45810272	     -0.12271152	     -6.51047481	      8.06969297	     -2.80441855	      6.97939238	      5.43265240	    -37.78836966	     -0.65953147	      3.83997083	      3.40034382	     -3.64632117	     -2.86455016	     -0.01512493	     -9.17007789	     -7.12369878	     -6.87718432	    -15.82081897	     20.35832060	     89.95437384	      0.00000000	      0.00000000	      1.30444727	     14.90047431	     36.40542052	     54.46613482	     89.95437384	      0.00000000	      0.00000000
      0.54000000	     -2.60717136	     -2.06990126	      7.01961706	     -0.57508470	      0.87956565	     -1.43904236	     26.85897849	     -1.16886822	    -16.89826935	    -26.50918608	     -0.46267258	      0.18667412	     -8.01826414	      7.77319340	     -1.12146434	      7.85446143	      4.88784861	    -40.68987933	     -0.71017237	      0.93985666	      5.11773941	     -3.20509836	     -2.24326149	      0.61530239	     -9.29071835	     -6.83277273	     -6.94361964	    -15.95961298	     19.82261136	     89.95437384	      0.00000000	      0.00000000	      0.59231544	     14.59473571	     36.53378096	     54.23763171	     89.95437384	      0.00000000	      0.00000000
      0.55000000	     -2.35767667	     -2.23020318	      6.72764366	     -0.56390509	      0.88054570	     -1.43701221	     26.04866697	     -0.60232783	    -16.39367926	    -26.88010872	     -0.46914640	      0.88298512	     -7.72550297	      7.40833775	     -0.38304895	      8.25334236	      4.58006758	    -43.08943980	     -0.75205260	     -2.32844994	      6.01832295	     -2.70842711	     -2.34000809	      0.89615514	     -8.84736726	     -6.71474986	     -7.04611266	    -15.86611585	     19.73003691	     89.95437384	      0.00000000	      0.00000000	      0.04215032	     14.31302230	     36.39427205	     53.95880482	     89.95437384	      0.00000000	      0.00000000
      0.56000000	     -2.23673253	     -2.58950049	      6.42758731	     -0.55316179	      0.88137006	     -1.43478833	     25.32834400	      0.18372828	    -16.04545193	    -27.06031130	     -0.47229153	      1.44193599	     -7.55488072	      7.15038107	      0.72299770	      8.87162794	      4.21320038	    -45.68304850	     -0.79731961	     -6.00129694	      7.27357060	     -2.12222339	     -2.32299734	      1.35794211	     -8.38691640	     -6.54496627	     -7.15607331	    -15.82255803	     19.67752090	     89.95437384	      0.00000000	      0.00000000	     -0.51542502	     13.98680577	     36.25323463	     53.70078377	     89.95437384	      0.00000000	      0.00000000
      0.57000000	     -2.11604839	     -2.75073758	      6.14942110	     -0.54266372	      0.88224954	     -1.43283066	     24.50787584	      0.72678429	    -15.81743794	    -27.09454442	     -0.47288901	      2.09862500	     -7.54590740	      6.93173316	      1.86253842	      9.14250973	      3.64844123	    -48.10873484	     -0.83965582	     -9.47902596	      8.22379020	     -1.58053418	     -2.36563422	      1.60879950	     -7.90156534	     -6.39490553	     -7.28082943	    -15.76542683	     19.71748032	     89.95437384	      0.00000000	      0.00000000	     -0.98381622	     13.70043980	     36.02078213	     53.28688969	     89.95437384	      0.00000000	      0.00000000
      0.58000000	     -1.83451526	     -2.57701475	      5.70590044	     -0.53279057	      0.88339168	     -1.43102167	     23.68029462	      0.87148551	    -15.48994560	    -27.42987911	     -0.47874170	      2.37641747	     -7.29036730	      6.69923865	      2.75228918	      8.86213756	      2.97825325	    -50.48034439	     -0.88104822	    -11.43496101	      8.24462778	     -1.34321450	     -2.76722224	      1.51221915	     -7.17560579	     -6.19013410	     -7.41195055	    -15.61365728	     19.93366479	     89.95437384	      0.00000000	      0.00000000	     -1.27373768	     13.36279378	     35.81514724	     52.91397830	     89.95437384	      0.00000000	      0.00000000
